<svg id="Layer_1" xmlns="http://www.w3.org/2000/svg" viewBox="-153 599.6 161 195.9"><style>.st0{fill:url(#SVGID_1_)}.st1{fill:none;stroke:#3c3c3c;stroke-linecap:round;stroke-linejoin:round}.st2{fill:url(#SVGID_2_)}.st3{fill:url(#SVGID_3_)}.st4{fill:url(#SVGID_4_)}.st5{fill:url(#SVGID_5_)}.st6{fill:url(#SVGID_6_)}.st7{fill:url(#SVGID_7_)}.st8{fill:url(#SVGID_8_)}.st9{fill:url(#SVGID_9_)}.st10{fill:url(#SVGID_10_)}.st11{fill:url(#SVGID_11_)}.st12{fill:url(#SVGID_12_)}.st13{fill:url(#SVGID_13_)}.st14{fill:url(#SVGID_14_)}.st15{fill:url(#SVGID_15_)}.st16{fill:url(#SVGID_16_)}.st17{fill:url(#SVGID_17_)}.st18{fill:url(#SVGID_18_)}.st19{fill:url(#SVGID_19_)}.st20{fill:url(#SVGID_20_)}.st21{fill:url(#SVGID_21_)}</style><linearGradient id="SVGID_1_" gradientUnits="userSpaceOnUse" x1="-683.35" y1="9.775" x2="-682.35" y2="9.775" gradientTransform="translate(27221.068 344.769) scale(40.0001)"><stop offset="0" stop-color="#f2ffa0"/><stop offset="1" stop-color="#ededed"/></linearGradient><path class="st0" d="M-73 747.6v-47.4l-40 23.7v47.4l40-23.7z"/><path class="st1" d="M-73 747.6v-47.4l-40 23.7v47.4l40-23.7z"/><linearGradient id="SVGID_2_" gradientUnits="userSpaceOnUse" x1="-694.47" y1="5.354" x2="-693.47" y2="5.354" gradientTransform="rotate(-60 -27957.628 -48060.373) scale(81.0743)"><stop offset="0" stop-color="#f2ffa0"/><stop offset="1" stop-color="#ededed"/></linearGradient><path class="st2" d="M-73 700.2l-40-23.7-40 23.7 40 23.7 40-23.7z"/><path class="st1" d="M-73 700.2l-40-23.7-40 23.7 40 23.7 40-23.7z"/><linearGradient id="SVGID_3_" gradientUnits="userSpaceOnUse" x1="-689.546" y1="-7.313" x2="-688.546" y2="-7.313" gradientTransform="scale(-81.6117) rotate(-60 -345.186 -606.308)"><stop offset="0" stop-color="#b0e577"/><stop offset="1" stop-color="#ebebeb"/></linearGradient><path class="st3" d="M-153 747.9v-47.4l40 23.7v47.4l-40-23.7z"/><path class="st1" d="M-153 747.9v-47.4l40 23.7v47.4l-40-23.7z"/><linearGradient id="SVGID_4_" gradientUnits="userSpaceOnUse" x1="-683.35" y1="9.776" x2="-682.35" y2="9.776" gradientTransform="translate(27301.068 345.316) scale(40.0001)"><stop offset="0" stop-color="#67b07a"/><stop offset="1" stop-color="#ededed"/></linearGradient><path class="st4" d="M7 748.2v-47.4l-40 23.7v47.4l40-23.7z"/><path class="st1" d="M7 748.2v-47.4l-40 23.7v47.4l40-23.7z"/><linearGradient id="SVGID_5_" gradientUnits="userSpaceOnUse" x1="-694.47" y1="5.354" x2="-693.47" y2="5.354" gradientTransform="rotate(-60 -27917.155 -48129.382) scale(81.0743)"><stop offset="0" stop-color="#f2ffa0"/><stop offset="1" stop-color="#ededed"/></linearGradient><path class="st5" d="M7 700.7L-33 677l-40 23.7 40 23.7 40-23.7z"/><path class="st1" d="M7 700.7L-33 677l-40 23.7 40 23.7 40-23.7z"/><linearGradient id="SVGID_6_" gradientUnits="userSpaceOnUse" x1="-689.546" y1="-7.312" x2="-688.546" y2="-7.312" gradientTransform="scale(-81.6117) rotate(-60 -345.682 -605.462)"><stop offset="0" stop-color="#b0e577"/><stop offset="1" stop-color="#ebebeb"/></linearGradient><path class="st6" d="M-73 748.4V701l40 23.7v47.4l-40-23.7z"/><path class="st1" d="M-73 748.4V701l40 23.7v47.4l-40-23.7z"/><linearGradient id="SVGID_7_" gradientUnits="userSpaceOnUse" x1="-683.35" y1="9.775" x2="-682.35" y2="9.775" gradientTransform="translate(27261.068 273.872) scale(40.0001)"><stop offset="0" stop-color="#f2ffa0"/><stop offset="1" stop-color="#ededed"/></linearGradient><path class="st7" d="M-33 676.7v-47.4L-73 653v47.4l40-23.7z"/><path class="st1" d="M-33 676.7v-47.4L-73 653v47.4l40-23.7z"/><linearGradient id="SVGID_8_" gradientUnits="userSpaceOnUse" x1="-694.47" y1="5.354" x2="-693.47" y2="5.354" gradientTransform="rotate(-60 -27999.025 -48130.461) scale(81.0743)"><stop offset="0" stop-color="#f2ffa0"/><stop offset="1" stop-color="#ededed"/></linearGradient><path class="st8" d="M-33 629.3l-40-23.7-40 23.7 40 23.7 40-23.7z"/><path class="st1" d="M-33 629.3l-40-23.7-40 23.7 40 23.7 40-23.7z"/><linearGradient id="SVGID_9_" gradientUnits="userSpaceOnUse" x1="-689.546" y1="-7.313" x2="-688.546" y2="-7.313" gradientTransform="scale(-81.6117) rotate(-60 -344.678 -605.449)"><stop offset="0" stop-color="#b0e577"/><stop offset="1" stop-color="#ebebeb"/></linearGradient><path class="st9" d="M-113 677v-47.4l40 23.7v47.4l-40-23.7z"/><path class="st1" d="M-113 677v-47.4l40 23.7v47.4l-40-23.7z"/><linearGradient id="SVGID_10_" gradientUnits="userSpaceOnUse" x1="-683.35" y1="9.775" x2="-682.35" y2="9.775" gradientTransform="translate(27301.068 297.773) scale(40.0001)"><stop offset="0" stop-color="#b0e577"/><stop offset="1" stop-color="#ededed"/></linearGradient><path class="st10" d="M7 700.6v-47.4l-40 23.7v47.4l40-23.7z"/><path class="st1" d="M7 700.6v-47.4l-40 23.7v47.4l40-23.7z"/><linearGradient id="SVGID_11_" gradientUnits="userSpaceOnUse" x1="-694.47" y1="5.354" x2="-693.47" y2="5.354" gradientTransform="rotate(-60 -27958.328 -48153.153) scale(81.0743)"><stop offset="0" stop-color="#b0e577"/><stop offset="1" stop-color="#ededed"/></linearGradient><path class="st11" d="M7 653.2l-40-23.7-40 23.7 40 23.7 40-23.7z"/><path class="st1" d="M7 653.2l-40-23.7-40 23.7 40 23.7 40-23.7z"/><linearGradient id="SVGID_12_" gradientUnits="userSpaceOnUse" x1="-689.546" y1="-7.312" x2="-688.546" y2="-7.312" gradientTransform="scale(-81.6117) rotate(-60 -345.174 -605.17)"><stop offset="0" stop-color="#67b07a"/><stop offset="1" stop-color="#ebebeb"/></linearGradient><path class="st12" d="M-73 700.6v-47.4l40 23.7v47.4l-40-23.7z"/><path class="st1" d="M-73 700.6v-47.4l40 23.7v47.4l-40-23.7z"/><linearGradient id="SVGID_13_" gradientUnits="userSpaceOnUse" x1="-683.35" y1="9.775" x2="-682.35" y2="9.775" gradientTransform="translate(27261.068 368.98) scale(40.0001)"><stop offset="0" stop-color="#b0e577"/><stop offset="1" stop-color="#ededed"/></linearGradient><path class="st13" d="M-33 771.8v-47.4l-40 23.7v47.4l40-23.7z"/><path class="st1" d="M-33 771.8v-47.4l-40 23.7v47.4l40-23.7z"/><linearGradient id="SVGID_14_" gradientUnits="userSpaceOnUse" x1="-694.47" y1="5.354" x2="-693.47" y2="5.354" gradientTransform="rotate(-60 -27916.66 -48082.909) scale(81.0743)"><stop offset="0" stop-color="#b0e577"/><stop offset="1" stop-color="#ededed"/></linearGradient><path class="st14" d="M-33 724.4l-40-23.7-40 23.7 40 23.7 40-23.7z"/><path class="st1" d="M-33 724.4l-40-23.7-40 23.7 40 23.7 40-23.7z"/><linearGradient id="SVGID_15_" gradientUnits="userSpaceOnUse" x1="-689.546" y1="-7.312" x2="-688.546" y2="-7.312" gradientTransform="scale(-81.6117) rotate(-60 -345.685 -606.03)"><stop offset="0" stop-color="#67b07a"/><stop offset="1" stop-color="#ebebeb"/></linearGradient><path class="st15" d="M-113 771.8v-47.4l40 23.7v47.4l-40-23.7z"/><path class="st1" d="M-113 771.8v-47.4l40 23.7v47.4l-40-23.7z"/><linearGradient id="SVGID_16_" gradientUnits="userSpaceOnUse" x1="-683.35" y1="9.775" x2="-682.35" y2="9.775" gradientTransform="translate(27221.068 297.773) scale(40.0001)"><stop offset="0" stop-color="#b0e577"/><stop offset="1" stop-color="#ededed"/></linearGradient><path class="st16" d="M-73 700.6v-47.4l-40 23.7v47.4l40-23.7z"/><path class="st1" d="M-73 700.6v-47.4l-40 23.7v47.4l40-23.7z"/><linearGradient id="SVGID_17_" gradientUnits="userSpaceOnUse" x1="-694.47" y1="5.354" x2="-693.47" y2="5.354" gradientTransform="rotate(-60 -27998.328 -48083.871) scale(81.0743)"><stop offset="0" stop-color="#b0e577"/><stop offset="1" stop-color="#ededed"/></linearGradient><path class="st17" d="M-73 653.2l-40-23.7-40 23.7 40 23.7 40-23.7z"/><path class="st1" d="M-73 653.2l-40-23.7-40 23.7 40 23.7 40-23.7z"/><linearGradient id="SVGID_18_" gradientUnits="userSpaceOnUse" x1="-689.546" y1="-7.312" x2="-688.546" y2="-7.312" gradientTransform="scale(-81.6117) rotate(-60 -344.684 -606.018)"><stop offset="0" stop-color="#67b07a"/><stop offset="1" stop-color="#ebebeb"/></linearGradient><path class="st18" d="M-153 700.6v-47.4l40 23.7v47.4l-40-23.7z"/><path class="st1" d="M-153 700.6v-47.4l40 23.7v47.4l-40-23.7z"/><linearGradient id="SVGID_19_" gradientUnits="userSpaceOnUse" x1="-683.35" y1="9.776" x2="-682.35" y2="9.776" gradientTransform="translate(27261.068 274.122) scale(40.0001)"><stop offset="0" stop-color="#b0e577"/><stop offset="1" stop-color="#ededed"/></linearGradient><path class="st19" d="M-33 677v-47.4l-40 23.7v47.4l40-23.7z"/><path class="st1" d="M-33 677v-47.4l-40 23.7v47.4l40-23.7z"/><linearGradient id="SVGID_20_" gradientUnits="userSpaceOnUse" x1="-694.47" y1="5.354" x2="-693.47" y2="5.354" gradientTransform="rotate(-60 -27998.808 -48130.336) scale(81.0743)"><stop offset="0" stop-color="#b0e577"/><stop offset="1" stop-color="#ededed"/></linearGradient><path class="st20" d="M-33 629.5l-40-23.7-40 23.7 40 23.7 40-23.7z"/><path class="st1" d="M-33 629.5l-40-23.7-40 23.7 40 23.7 40-23.7z"/><linearGradient id="SVGID_21_" gradientUnits="userSpaceOnUse" x1="-689.546" y1="-7.313" x2="-688.546" y2="-7.313" gradientTransform="scale(-81.6117) rotate(-60 -344.678 -605.449)"><stop offset="0" stop-color="#67b07a"/><stop offset="1" stop-color="#ebebeb"/></linearGradient><path class="st21" d="M-113 677v-47.4l40 23.7v47.4l-40-23.7z"/><path class="st1" d="M-113 677v-47.4l40 23.7v47.4l-40-23.7z"/></svg>